<svg width="20" height="20" viewBox="0 0 20 20" fill="none" xmlns="http://www.w3.org/2000/svg">
<rect width="20" height="20" fill="#C4C4C4"/>
<path d="M10 4.35188C12.136 4.35188 12.3893 4.35938 13.2333 4.39563C15.4013 4.48813 16.414 5.4525 16.5127 7.47C16.5513 8.26062 16.5587 8.49813 16.5587 10.5006C16.5587 12.5038 16.5507 12.7406 16.5127 13.5313C16.4133 15.5469 15.4033 16.5131 13.2333 16.6056C12.3893 16.6419 12.1373 16.6494 10 16.6494C7.864 16.6494 7.61067 16.6419 6.76733 16.6056C4.594 16.5125 3.58667 15.5438 3.488 13.5306C3.44933 12.74 3.44133 12.5031 3.44133 10.5C3.44133 8.4975 3.45 8.26063 3.488 7.46938C3.58733 5.4525 4.59733 4.4875 6.76733 4.395C7.61133 4.35938 7.864 4.35188 10 4.35188V4.35188ZM10 3C7.82733 3 7.55533 3.00875 6.702 3.045C3.79667 3.17 2.182 4.68125 2.04867 7.4075C2.00933 8.20813 2 8.46312 2 10.5C2 12.5369 2.00933 12.7925 2.048 13.5925C2.18133 16.3162 3.79333 17.83 6.70133 17.955C7.55533 17.9912 7.82733 18 10 18C12.1727 18 12.4453 17.9912 13.2987 17.955C16.2013 17.83 17.82 16.3187 17.9513 13.5925C17.9907 12.7925 18 12.5369 18 10.5C18 8.46312 17.9907 8.20812 17.952 7.40812C17.8213 4.68687 16.2073 3.17063 13.2993 3.04562C12.4453 3.00875 12.1727 3 10 3V3ZM10 6.64875C7.73133 6.64875 5.892 8.37312 5.892 10.5C5.892 12.6269 7.73133 14.3519 10 14.3519C12.2687 14.3519 14.108 12.6275 14.108 10.5C14.108 8.37312 12.2687 6.64875 10 6.64875ZM10 13C8.52733 13 7.33333 11.8813 7.33333 10.5C7.33333 9.11937 8.52733 8 10 8C11.4727 8 12.6667 9.11937 12.6667 10.5C12.6667 11.8813 11.4727 13 10 13ZM14.2707 5.59688C13.74 5.59688 13.31 6 13.31 6.49687C13.31 6.99375 13.74 7.39687 14.2707 7.39687C14.8007 7.39687 15.23 6.99375 15.23 6.49687C15.23 6 14.8007 5.59688 14.2707 5.59688Z" fill="black"/>
</svg>
