<svg width="20" height="20" viewBox="0 0 20 20" fill="none" xmlns="http://www.w3.org/2000/svg">
<rect width="20" height="20" fill="#C4C4C4"/>
<g clip-path="url(#clip0_1_184)">
<path d="M6.6975 5.89584C6.6975 6.64388 6.09625 7.25 5.35417 7.25C4.61208 7.25 4.01083 6.64388 4.01083 5.89584C4.01083 5.14833 4.61208 4.54167 5.35417 4.54167C6.09625 4.54167 6.6975 5.14833 6.6975 5.89584ZM6.70833 8.33334H4V17H6.70833V8.33334ZM11.0319 8.33334H8.34092V17H11.0325V12.4505C11.0325 9.92096 14.2982 9.71405 14.2982 12.4505V17H17V11.5124C17 7.24404 12.1673 7.3995 11.0319 9.50063V8.33334Z" fill="black"/>
</g>
<defs>
<clipPath id="clip0_1_184">
<rect width="13" height="13" fill="white" transform="translate(4 4)"/>
</clipPath>
</defs>
</svg>
