<?xml version="1.0" encoding="utf-8"?>
<!-- Generator: Adobe Illustrator 25.0.0, SVG Export Plug-In . SVG Version: 6.00 Build 0)  -->
<svg version="1.1" id="Layer_1" xmlns="http://www.w3.org/2000/svg" xmlns:xlink="http://www.w3.org/1999/xlink" x="0px" y="0px"
	 viewBox="0 0 87.57 87.32" style="enable-background:new 0 0 87.57 87.32;" xml:space="preserve">
<style type="text/css">
	.st0{fill:url(#SVGID_1_);}
	.st1{fill:url(#SVGID_2_);}
	.st2{fill:url(#SVGID_3_);}
	.st3{fill:url(#SVGID_4_);}
	.st4{fill:url(#SVGID_5_);}
</style>
<circle cx="44.02" cy="43.77" r="41"/>
<g>
	<linearGradient id="SVGID_1_" gradientUnits="userSpaceOnUse" x1="59.464" y1="33.3333" x2="61.2886" y2="32.6692">
		<stop  offset="0" style="stop-color:#29D8BE"/>
		<stop  offset="0.3325" style="stop-color:#25DCBD"/>
		<stop  offset="0.6674" style="stop-color:#19E8B9"/>
		<stop  offset="1" style="stop-color:#06FCB2"/>
	</linearGradient>
	<path class="st0" d="M60.38,32.03c-0.54,0-0.97,0.4-0.97,0.97c0,0.56,0.39,0.97,0.97,0.97c0.56,0,0.96-0.4,0.96-0.97
		C61.34,32.43,60.91,32.03,60.38,32.03z"/>
	<linearGradient id="SVGID_2_" gradientUnits="userSpaceOnUse" x1="64.6264" y1="33.3333" x2="66.451" y2="32.6692">
		<stop  offset="0" style="stop-color:#29D8BE"/>
		<stop  offset="0.3325" style="stop-color:#25DCBD"/>
		<stop  offset="0.6674" style="stop-color:#19E8B9"/>
		<stop  offset="1" style="stop-color:#06FCB2"/>
	</linearGradient>
	<path class="st1" d="M65.54,32.03c-0.54,0-0.97,0.4-0.97,0.97c0,0.56,0.39,0.97,0.97,0.97c0.56,0,0.96-0.4,0.96-0.97
		C66.5,32.43,66.08,32.03,65.54,32.03z"/>
	<linearGradient id="SVGID_3_" gradientUnits="userSpaceOnUse" x1="46.4923" y1="37.9947" x2="73.9784" y2="27.9906">
		<stop  offset="0.1117" style="stop-color:#3EC2C6"/>
		<stop  offset="0.7998" style="stop-color:#13EEB7"/>
		<stop  offset="1" style="stop-color:#06FCB2"/>
	</linearGradient>
	<path class="st2" d="M61.29,22.02c-7.64,0-13.83,4.72-13.83,10.54c0,2.54,1.18,4.87,3.15,6.69l-2.45,3.03
		c-0.16,0.2,0.07,0.09,0.07,0.09l3.92-1.87c0.94,0.52,2.92,2.42,9.14,2.6c7.64,0.21,13.83-4.72,13.83-10.54S68.92,22.02,61.29,22.02
		z M54.88,35.06l-0.95-2.13l-0.95,2.13h-0.97l-2.22-4.13h1.64l1.01,2.23l0.99-2.23h0.98l0.99,2.23l1.01-2.23h1.64l-2.22,4.13H54.88z
		 M60.39,35.18c-1.49,0-2.49-0.91-2.49-2.18c0-1.29,1.1-2.19,2.49-2.19c1.37,0,2.46,0.9,2.46,2.19
		C62.85,34.27,61.82,35.18,60.39,35.18z M65.55,35.18c-1.49,0-2.49-0.91-2.49-2.18c0-1.29,1.1-2.19,2.49-2.19
		c1.37,0,2.46,0.9,2.46,2.19C68.02,34.27,66.98,35.18,65.55,35.18z M71.26,30.93v1.09h-0.95v3.04h-1.43v-3.04h-0.6v-1.09h0.6v-0.88
		c0.01-1.21,0.59-2.04,1.62-2.04c0.72,0,1.18,0.37,1.18,0.37l-0.5,1.01c0,0-0.19-0.11-0.43-0.11c-0.36,0-0.44,0.24-0.44,0.81v0.84
		H71.26z"/>
</g>
<g>
	<linearGradient id="SVGID_4_" gradientUnits="userSpaceOnUse" x1="19.0258" y1="76.3049" x2="52.1062" y2="43.2246">
		<stop  offset="0.2682" style="stop-color:#DC1FFF"/>
		<stop  offset="0.7602" style="stop-color:#728DD9"/>
		<stop  offset="1" style="stop-color:#43BEC8"/>
	</linearGradient>
	<path class="st3" d="M43.27,52.84c0,0,4.8-6.1,4.82-6.13c0.29-0.3,0.09-0.69,0.09-0.69s-0.77-2.16-0.77-2.17
		c-0.07-0.24-0.16-0.08-0.16-0.08l-1.39,1.52c-0.23,0.05-0.27-0.27-0.25-0.31c1.8-2.12,1.53-5.19,1.53-5.19s-3.55-4.96-3.58-5
		c-0.37-0.69-1.07-1.02-1.09-1.04c-0.62-0.75-1.61-0.19-1.61-0.19l-2.89,2.23c0,0-4.05,3.17-7.93,6.09
		C9.27,41.32,10.97,64.81,10.97,64.81c-0.32,1.1,3.85,6.92,3.85,7c1.5,2.92,10.8,7.95,12.14,8.62c3.37,1.87,16.59,3.34,16.59,3.34
		v-1.09c0,0-1.26-3.94-1.37-4.16c-0.19-3.19-3.19-8.85-3.2-8.86c-0.42-0.57-0.26-1.38-0.26-1.38s1.07-7.7,1.06-7.8
		c0-0.19,0.12-0.22,0.12-0.22s2.95-3.36,3.05-3.51c0.32-0.37,0.26-0.81,0.26-0.81s-0.09-2.64-0.09-2.67
		C43.13,53,43.27,52.84,43.27,52.84z M27.12,53.87c0,0-2.2,5-3.19,11.41c-0.24,1.53-0.68,3.56-0.68,3.56s0.02,0.16-0.24,0
		c-0.01,0-2.69-1.95-3.21-5.45c0-0.05-0.27-2.72,0.11-4.5c0.01-0.04,0.64-3.4,1.1-3.85c0.04,0,0.07,0,0.08,0.02s0.05,0.06,0.05,0.06
		s-1.14,5.77-0.42,8.68c0.38,1.74,1.14,2.87,1.14,2.87l0.33,0.36c0,0,0.4,0.38,0.5,0.35c0,0,1.8-10.83,4.46-13.72
		C27.18,53.72,27.12,53.87,27.12,53.87z"/>
	<linearGradient id="SVGID_5_" gradientUnits="userSpaceOnUse" x1="13.9693" y1="73.818" x2="74.0733" y2="13.7139">
		<stop  offset="0.2067" style="stop-color:#DC1FFF"/>
		<stop  offset="0.2614" style="stop-color:#C537F7"/>
		<stop  offset="0.408" style="stop-color:#8D70E3"/>
		<stop  offset="0.5499" style="stop-color:#5FA1D2"/>
		<stop  offset="0.6834" style="stop-color:#3AC6C5"/>
		<stop  offset="0.8067" style="stop-color:#20E1BC"/>
		<stop  offset="0.916" style="stop-color:#11F1B6"/>
		<stop  offset="1" style="stop-color:#0BF7B4"/>
	</linearGradient>
	<path class="st4" d="M83.18,27.22c-2.14-5.06-5.2-9.61-9.11-13.51c-3.9-3.9-8.45-6.97-13.51-9.11c-5.24-2.22-10.81-3.34-16.54-3.34
		s-11.3,1.12-16.54,3.34c-5.06,2.14-9.61,5.2-13.51,9.11c-3.9,3.9-6.97,8.45-9.11,13.51c-2.22,5.24-3.34,10.81-3.34,16.54
		c0,5.74,1.12,11.3,3.34,16.54c2.14,5.06,5.2,9.61,9.11,13.51c3.9,3.9,8.45,6.97,13.51,9.11c5.24,2.22,10.81,3.34,16.54,3.34
		s11.3-1.12,16.54-3.34c5.06-2.14,9.61-5.2,13.51-9.11c3.9-3.9,6.97-8.45,9.11-13.51c2.22-5.24,3.34-10.81,3.34-16.54
		C86.52,38.03,85.4,32.46,83.18,27.22z M44.02,83.11c-21.73,0-39.34-17.61-39.34-39.34S22.29,4.42,44.02,4.42
		s39.34,17.61,39.34,39.34S65.75,83.11,44.02,83.11z"/>
</g>
</svg>