<svg width="20" height="20" viewBox="0 0 20 20" fill="none" xmlns="http://www.w3.org/2000/svg">
<rect width="20" height="20" fill="#C4C4C4"/>
<path d="M14.7734 4.16496C14.5687 3.97416 14.2472 3.94686 13.9148 4.09356H13.9142C13.5646 4.24777 4.01769 8.74898 3.62904 8.93288C3.55835 8.95988 2.941 9.21308 3.00459 9.77708C3.06136 10.2856 3.55753 10.4962 3.61812 10.5205L6.04525 11.434C6.20627 12.0232 6.79989 14.197 6.93116 14.6614C7.01304 14.9509 7.1465 15.3313 7.3804 15.4096C7.58564 15.4966 7.78979 15.4171 7.92188 15.3031L9.40578 13.7902L11.8012 15.8437L11.8583 15.8812C12.0209 15.9604 12.1768 16 12.3255 16C12.4404 16 12.5507 15.9763 12.656 15.9289C13.0149 15.7669 13.1585 15.391 13.1735 15.3484L14.9628 5.12527C15.072 4.57927 14.9202 4.30147 14.7734 4.16496ZM8.1858 11.7994L7.36702 14.1994L6.54825 11.1994L12.8255 6.09937L8.1858 11.7994Z" fill="black"/>
</svg>
