<svg width="20" height="20" viewBox="0 0 20 20" fill="none" xmlns="http://www.w3.org/2000/svg">
<rect width="20" height="20" fill="#C4C4C4"/>
<g clip-path="url(#clip0_1_174)">
<path d="M17 5.84812C16.4481 6.09312 15.855 6.25812 15.2325 6.3325C15.8681 5.95187 16.3562 5.34875 16.5856 4.63C15.9912 4.9825 15.3325 5.23875 14.6312 5.37687C14.0706 4.77875 13.27 4.405 12.385 4.405C10.3981 4.405 8.93813 6.25875 9.38688 8.18312C6.83 8.055 4.5625 6.83 3.04438 4.96812C2.23813 6.35125 2.62625 8.16062 3.99625 9.07687C3.4925 9.06062 3.0175 8.9225 2.60312 8.69187C2.56937 10.1175 3.59125 11.4512 5.07125 11.7481C4.63813 11.8656 4.16375 11.8931 3.68125 11.8006C4.0725 13.0231 5.20875 13.9125 6.55625 13.9375C5.2625 14.9519 3.6325 15.405 2 15.2125C3.36187 16.0856 4.98 16.595 6.7175 16.595C12.4313 16.595 15.6594 11.7694 15.4644 7.44125C16.0656 7.00687 16.5875 6.465 17 5.84812V5.84812Z" fill="black"/>
</g>
<defs>
<clipPath id="clip0_1_174">
<rect width="15" height="15" fill="white" transform="translate(2 3)"/>
</clipPath>
</defs>
</svg>
